<svg width="50" height="25" viewBox="0 0 423 264" fill="none" xmlns="http://www.w3.org/2000/svg">
<g clip-path="url(#clip0_120_25)">
<path d="M207.524 223.495C123.304 217.725 95.9363 176.541 88.28 148.066C88.28 148.066 104.735 152.026 126.265 154.666C126.308 154.666 132.103 155.383 132.187 154.025C132.399 151.385 83.6693 138.6 60.0659 102.545C41.6231 74.4103 40.5233 47.4069 40.5233 47.4069C89.972 55.8926 120.343 66.5657 275.838 63.096C324.018 63.096 345.464 71.9589 345.464 124.57C345.506 161.342 327.486 222.816 207.524 223.495M423 122.647C423 115.745 414.836 111.333 404.684 108.504L404.895 108.315C404.895 108.315 404.303 108.278 403.33 108.127C401.723 107.712 400.031 107.297 398.339 106.958C396.055 106.203 393.601 105.072 391.782 103.299C389.667 101.263 388.398 98.6606 387.637 96.4731C381.207 58.344 356.927 23.4206 275.88 23.4206H135.064C130.284 23.3074 117.34 22.6286 86.7149 19.6491C56.978 16.7451 30.3713 8.41029 30.1175 8.29714L4.0184 0L0.761301 24.7029C0.380601 27.72 -8.0794 97.3783 42.0038 132.754L41.9615 133.169C40.0157 151.875 48.0527 192.682 91.6217 225.72C185.993 297.302 314.247 252.346 347.071 220.893C367.587 201.206 382.35 177.898 387.426 149.99C388.187 147.651 389.498 144.785 391.782 142.598C392.798 141.655 393.94 140.863 395.209 140.259C398.508 139.505 401.808 138.638 404.895 137.619C414.921 134.263 423 129.473 423 122.647M299.568 86.9691C288.655 86.9691 281.295 93.0034 281.295 104.129C281.295 114.501 288.655 120.346 299.568 120.346C310.27 120.346 318.054 114.123 318.054 103.941C318.096 92.8149 311.582 86.9691 299.568 86.9691" fill="#4DB182"/>
</g>
<defs>
<clipPath id="clip0_120_25">
<rect width="423" height="264" fill="white"/>
</clipPath>
</defs>
</svg>
